<svg t="1617169727618" class="icon" viewBox="0 0 1039 1024" version="1.1" xmlns="http://www.w3.org/2000/svg" p-id="3984" width="200" height="200"><path d="M422.327684 680.73823c-19.284369 0-36.640301-15.427495-38.568739-34.711865-1.928437-21.212806 13.499058-40.497175 34.711865-42.425612l374.116761-34.711864 30.85499-254.553672-613.242938-17.355933c-21.212806 0-38.568738-19.284369-36.640301-40.497175 0-21.212806 17.355932-38.568738 40.497175-36.640301l653.740113 19.284369c11.570621 0 21.212806 5.785311 28.926554 13.499058 7.713748 7.713748 9.642185 19.284369 9.642184 28.926554l-38.568738 327.834275c-1.928437 17.355932-17.355932 32.783427-34.711864 34.711864l-404.971752 38.568739c-1.928437-1.928437-3.856874-1.928437-5.78531-1.928437z" fill="#E78E00" p-id="3985"></path><path d="M867.79661 796.444444h-617.099812c-19.284369 0-36.640301-15.427495-38.568738-34.711864l-53.996233-528.391714c-13.499058-5.785311-23.141243-19.284369-23.141243-34.711864 0-21.212806 17.355932-38.568738 38.568738-38.568738h19.284369c19.284369 0 36.640301 15.427495 38.568738 34.711864l53.996234 524.53484h582.387947c21.212806 0 38.568738 17.355932 38.568738 38.568738s-17.355932 38.568738-38.568738 38.568738z" fill="#388CEB" p-id="3986"></path><path d="M383.758945 873.581921m-57.853107 0a57.853107 57.853107 0 1 0 115.706215 0 57.853107 57.853107 0 1 0-115.706215 0Z" fill="#388CEB" p-id="3987"></path><path d="M730.877589 873.581921m-57.853107 0a57.853107 57.853107 0 1 0 115.706215 0 57.853107 57.853107 0 1 0-115.706215 0Z" fill="#388CEB" p-id="3988"></path></svg>